<svg id="Layer_1" enable-background="new 0 0 128 128" height="512" viewBox="0 0 128 128" width="512" xmlns="http://www.w3.org/2000/svg"><path d="m119.315 74.286c.259-7.583-2.208-14.458-6.945-19.359-3.844-3.977-8.955-6.515-15.238-7.596.329-1.61-.082-3.282-1.195-4.579l-.534-.622.425-.698c1.03-1.693 1.068-3.73.102-5.451-.961-1.71-2.766-2.773-4.709-2.773-.718 0-1.423.143-2.097.424l-.756.316-.534-.622c-1.03-1.198-2.52-1.886-4.086-1.886-1.069 0-2.106.324-2.988.902.332-1.135.34-2.367-.046-3.554-.811-2.493-3.116-4.168-5.725-4.168l-2.497-.031-.754-2.323c-.811-2.493-3.116-4.167-5.737-4.167-2.622 0-4.928 1.675-5.732 4.155l-.802 2.366h-2.442c-2.621 0-4.927 1.675-5.737 4.168-.385 1.187-.377 2.421-.046 3.556-.881-.578-1.919-.902-2.988-.902-1.566 0-3.056.688-4.087 1.887l-.533.621-.757-.316c-.673-.281-1.378-.423-2.096-.423-1.943 0-3.748 1.063-4.709 2.773-.966 1.72-.929 3.757.101 5.45l.426.699-.536.624c-1.112 1.296-1.522 2.967-1.194 4.577-6.283 1.082-11.394 3.619-15.239 7.596-4.737 4.902-7.203 11.772-6.944 19.341.027.876.027 1.758 0 2.618-.259 7.582 2.207 14.457 6.944 19.358 5.26 5.442 12.881 8.202 22.651 8.202 6.358 0 11.509 1.153 13.775 3.085l5.564 4.745c1.269 1.083 2.824 1.624 4.38 1.624s3.111-.541 4.38-1.624l5.563-4.743c2.268-1.933 7.417-3.087 13.776-3.087.617 0 1.225-.011 1.825-.033.015-.001.03 0 .045-.001.003 0 .006-.002.009-.002 1.438-.054 2.82-.179 4.158-.359.043 0 .087-.003.131-.009.108-.015.213-.037.321-.053.405-.059.803-.126 1.198-.198.189-.034.379-.066.566-.102.491-.096.974-.203 1.45-.318.075-.018.154-.032.228-.05.003-.001.005-.003.008-.004 1.27-.316 2.482-.704 3.643-1.152.013-.005.027-.002.041-.007.122-.047.239-.101.36-.15.238-.096.475-.194.709-.296.198-.087.394-.177.589-.268.241-.112.482-.225.718-.344.174-.088.345-.179.516-.27.247-.131.494-.262.735-.4.154-.088.304-.181.456-.273.247-.148.494-.297.734-.453.144-.093.283-.192.424-.288.238-.161.476-.322.707-.491.151-.11.296-.227.443-.341.212-.163.425-.323.631-.492.187-.154.367-.316.549-.476.159-.139.321-.273.476-.416.336-.309.663-.628.98-.956 4.737-4.902 7.203-11.771 6.944-19.34-.025-.879-.025-1.761.002-2.621zm-40.972-36.991.067.816-.756.316c-.198.083-.381.187-.564.29l-.544-1.749 1.93-1.402c-.133.555-.181 1.136-.133 1.729zm-22.872-.278-.554 1.704c-.185-.105-.37-.21-.571-.294l-.756-.316.067-.817c.048-.592 0-1.173-.133-1.729z" fill="#e6e7e8"/><path d="m52.704 102.772c-2.479-2.113-7.736-3.325-14.424-3.325-9.489 0-16.868-2.657-21.933-7.897-4.546-4.704-6.913-11.32-6.664-18.629.028-.882.028-1.788 0-2.684-.249-7.295 2.118-13.91 6.664-18.615 5.065-5.24 12.444-7.896 21.933-7.896 6.687 0 11.944-1.212 14.425-3.327l9.295-7.925 9.296 7.926c2.479 2.113 7.737 3.326 14.424 3.326 9.488 0 16.867 2.657 21.932 7.896 4.547 4.704 6.914 11.32 6.665 18.63-.028.882-.028 1.788 0 2.684.249 7.295-2.118 13.909-6.664 18.614-5.064 5.24-12.443 7.897-21.933 7.897-6.688 0-11.945 1.212-14.425 3.326l-5.563 4.743c-2.15 1.833-5.313 1.833-7.464 0z" fill="#fa759e"/><path d="m19.348 91.55c-4.546-4.704-6.913-11.32-6.664-18.629.028-.882.028-1.788 0-2.684-.249-7.295 2.118-13.91 6.664-18.615 4.993-5.165 12.239-7.814 21.533-7.889-.007-.024-.014-.048-.022-.072-.833.042-1.693.065-2.579.065-9.488 0-16.867 2.656-21.933 7.896-4.546 4.705-6.913 11.319-6.664 18.615.028.896.028 1.802 0 2.684-.249 7.309 2.118 13.925 6.664 18.629 5.064 5.24 12.443 7.897 21.933 7.897.736 0 1.451.017 2.151.046.008-.02.017-.041.025-.061-9.09-.151-16.192-2.796-21.108-7.882z" fill="#fff"/><path d="m55.948 98.967c-3.469-2.957-9.579-4.52-17.668-4.52-8.081 0-14.251-2.144-18.337-6.371-3.595-3.72-5.464-9.041-5.263-14.985.033-.996.033-2.012 0-3.014-.201-5.938 1.668-11.26 5.263-14.979 4.087-4.228 10.256-6.371 18.337-6.371 8.089 0 14.198-1.563 17.668-4.521l6.052-5.161 6.052 5.16c3.47 2.958 9.579 4.521 17.668 4.521 8.081 0 14.25 2.143 18.336 6.37 3.596 3.72 5.465 9.042 5.264 14.985-.033.996-.033 2.013 0 3.015.201 5.938-1.668 11.259-5.263 14.979-4.086 4.228-10.256 6.371-18.337 6.371-8.089 0-14.199 1.563-17.668 4.52l-6.052 5.161z" fill="#0089ef"/><path d="m62.19 47.07c-.064 0-.128-.006-.19-.018-.337.066-.708-.049-.952-.333-.357-.421-.307-1.052.113-1.41l.19-.162c.375-.318.922-.318 1.297 0l.19.162c.42.358.471.989.113 1.41-.197.232-.478.351-.761.351z" fill="#fff"/><path d="m60.67 97.518c-.32 0-.634-.153-.827-.437l-.28-.412c-.312-.457-.193-1.079.264-1.39.456-.311 1.078-.192 1.389.264l.28.412c.312.457.193 1.079-.264 1.39-.172.117-.369.173-.562.173zm2.724-.094c-.193 0-.39-.056-.562-.173-.457-.311-.575-.933-.264-1.39l.28-.412c.311-.456.933-.574 1.389-.264.457.311.575.933.264 1.39l-.28.412c-.194.284-.507.437-.827.437zm-6.09-2.781c-.176 0-.354-.046-.516-.144-.135-.081-.271-.161-.408-.24-.48-.274-.647-.884-.373-1.364.271-.48.883-.648 1.363-.373.153.087.303.175.451.265.473.285.625.9.34 1.373-.188.312-.518.483-.857.483zm9.49-.059c-.341 0-.673-.174-.859-.488-.283-.474-.128-1.088.346-1.371.148-.088.298-.175.449-.261.479-.273 1.09-.103 1.363.376.272.48.104 1.091-.377 1.363-.138.079-.275.158-.41.239-.161.097-.338.142-.512.142zm-13.516-1.89c-.119 0-.24-.021-.357-.066l-.454-.17c-.519-.191-.783-.766-.593-1.285.192-.518.767-.782 1.284-.592l.478.179c.516.198.774.776.576 1.292-.152.397-.531.642-.934.642zm17.551-.04c-.403 0-.783-.246-.935-.646-.196-.516.063-1.094.579-1.29l.483-.179c.521-.187 1.093.083 1.279.602.188.52-.082 1.092-.602 1.28l-.45.167c-.116.044-.236.066-.354.066zm-21.831-1.27c-.076 0-.153-.008-.231-.027l-.476-.109c-.538-.122-.876-.657-.755-1.196.122-.54.656-.877 1.196-.755l.495.114c.537.127.87.666.743 1.203-.109.46-.519.77-.972.77zm26.115-.025c-.453 0-.864-.311-.973-.771-.126-.538.207-1.076.745-1.202l.497-.113c.543-.121 1.073.222 1.193.76.119.539-.221 1.073-.761 1.193l-.473.107c-.075.017-.152.026-.228.026zm-30.522-.775c-.043 0-.087-.003-.131-.008l-.484-.062c-.549-.066-.939-.565-.873-1.113s.563-.935 1.113-.872l.504.063c.548.072.934.574.861 1.122-.065.504-.495.87-.99.87zm34.93-.015c-.496 0-.926-.368-.991-.872-.07-.548.316-1.049.864-1.12l.505-.063c.549-.068 1.046.328 1.11.876s-.328 1.045-.876 1.11l-.483.06c-.044.007-.087.009-.129.009zm-39.391-.385c-.017 0-.034 0-.051-.001l-.491-.023c-.552-.024-.979-.491-.955-1.043.024-.551.494-.973 1.043-.955l.503.024c.552.027.977.497.949 1.049-.027.534-.469.949-.998.949zm43.853-.005c-.529 0-.971-.415-.998-.95-.027-.552.397-1.021.949-1.049l.506-.023c.521-.028 1.018.406 1.04.958s-.406 1.018-.958 1.04l-.488.022c-.016.001-.034.002-.051.002zm-48.333-.094c-.008 0-.016 0-.023 0l-.507-.014c-.552-.018-.984-.48-.966-1.032.018-.541.461-.967.998-.967h.033l.488.014c.552.013.989.471.977 1.023-.012.544-.458.976-1 .976zm52.811-.002c-.54 0-.984-.431-.999-.974-.015-.552.422-1.012.974-1.026l.486-.016c.507-.044 1.016.408 1.037.96s-.409 1.017-.961 1.038l-.51.017c-.009.001-.017.001-.027.001zm-57.271-.387c-.053 0-.107-.004-.161-.013l-.508-.087c-.544-.098-.904-.618-.807-1.162.099-.543.62-.911 1.162-.806l.473.081c.546.088.916.603.827 1.147-.079.492-.504.84-.986.84zm61.731-.018c-.48 0-.904-.347-.985-.836-.091-.545.278-1.06.823-1.15l.47-.083c.55-.106 1.065.257 1.167.799.101.543-.257 1.065-.8 1.167-.169.032-.339.062-.511.09-.055.008-.11.013-.164.013zm-66.056-1.121c-.12 0-.242-.022-.361-.068-.166-.064-.329-.13-.49-.198-.509-.215-.746-.801-.531-1.31s.799-.747 1.311-.532c.142.06.287.118.434.175.515.2.771.779.571 1.294-.154.396-.533.639-.934.639zm70.374-.041c-.398 0-.775-.241-.931-.634-.202-.514.051-1.094.564-1.297.146-.058.291-.117.433-.178.508-.218 1.097.017 1.313.525.218.507-.018 1.095-.524 1.313-.161.069-.323.136-.489.201-.12.048-.244.07-.366.07zm-74.252-2.164c-.222 0-.445-.074-.631-.225-.138-.112-.272-.228-.406-.345-.416-.364-.458-.995-.095-1.411.365-.416.996-.458 1.411-.094.116.102.233.201.354.299.428.349.492.979.144 1.407-.198.243-.486.369-.777.369zm78.114-.072c-.287 0-.572-.123-.77-.36-.354-.425-.296-1.055.129-1.408.118-.098.233-.198.347-.3.407-.369 1.042-.338 1.412.074.369.411.337 1.043-.074 1.413-.133.12-.268.236-.405.351-.187.154-.415.23-.639.23zm-80.971-3.342c-.352 0-.691-.185-.875-.513-.087-.156-.171-.313-.251-.472-.251-.492-.056-1.094.437-1.345.493-.253 1.094-.055 1.345.437.07.136.143.272.218.407.269.482.095 1.092-.388 1.36-.154.085-.321.126-.486.126zm83.795-.099c-.161 0-.325-.039-.478-.122-.485-.264-.664-.872-.399-1.356.074-.136.146-.271.213-.408.246-.494.844-.698 1.341-.451.494.246.696.846.45 1.34-.079.159-.162.317-.248.475-.182.334-.525.522-.879.522zm-85.311-4.099c-.467 0-.884-.328-.979-.802-.035-.175-.067-.348-.097-.52-.092-.545.275-1.061.819-1.153.551-.098 1.061.275 1.153.819.025.151.054.304.085.458.109.542-.241 1.069-.782 1.178-.067.014-.133.02-.199.02zm86.795-.112c-.062 0-.124-.005-.188-.018-.543-.103-.899-.626-.796-1.169.029-.156.058-.311.082-.464.089-.545.602-.914 1.148-.826.545.089.915.603.826 1.148-.028.17-.059.342-.092.515-.089.48-.509.814-.98.814zm-87.13-4.347c-.011 0-.021 0-.03 0-.552-.016-.986-.477-.971-1.029l.013-.492c.013-.552.443-1.005 1.023-.976.552.013.989.471.977 1.023l-.013.503c-.016.542-.461.971-.999.971zm87.438-.114c-.538 0-.982-.429-.999-.971l-.012-.51c-.01-.552.43-1.008.982-1.018.583.014 1.008.43 1.018.982l.012.486c.016.552-.419 1.013-.971 1.029-.01.002-.019.002-.03.002zm-87.452-4.366c-.004 0-.008 0-.012 0-.553-.007-.995-.46-.988-1.012.002-.168.007-.342.014-.52.019-.552.479-.98 1.033-.965.552.019.984.482.965 1.034-.005.164-.01.322-.012.476-.007.547-.453.987-1 .987zm87.467-.114c-.547 0-.993-.44-1-.988-.002-.151-.007-.306-.015-.464-.025-.552.401-1.02.953-1.045.535-.021 1.02.401 1.045.953.008.182.015.359.017.532.007.552-.436 1.005-.988 1.012-.004 0-.008 0-.012 0zm-86.863-4.317c-.087 0-.175-.012-.263-.035-.533-.145-.848-.693-.703-1.227.046-.17.095-.342.148-.514.164-.527.722-.823 1.252-.658.527.164.822.725.658 1.252-.046.148-.089.296-.129.443-.119.446-.522.739-.963.739zm86.233-.108c-.436 0-.837-.288-.961-.728-.042-.148-.086-.297-.134-.447-.167-.526.124-1.089.65-1.256.523-.166 1.088.123 1.256.65.054.17.104.339.151.508.15.531-.158 1.084-.689 1.235-.091.025-.183.038-.273.038zm-84.395-3.955c-.193 0-.39-.056-.562-.173-.457-.311-.575-.933-.264-1.39.101-.148.206-.295.314-.44.33-.442.956-.532 1.399-.203.442.331.533.958.202 1.4-.091.122-.179.245-.264.369-.191.285-.506.437-.825.437zm82.521-.092c-.317 0-.629-.15-.823-.43-.085-.123-.173-.244-.265-.365-.336-.438-.252-1.066.187-1.402.439-.335 1.067-.251 1.401.187.111.145.219.292.321.44.314.454.201 1.077-.253 1.392-.174.12-.372.178-.568.178zm-79.356-3.041c-.32 0-.635-.153-.828-.438-.311-.457-.191-1.079.266-1.389.147-.1.297-.197.449-.292.468-.293 1.085-.15 1.378.319.292.468.149 1.085-.319 1.377-.131.082-.259.165-.385.251-.172.117-.368.172-.561.172zm76.161-.063c-.19 0-.384-.054-.555-.168-.126-.084-.255-.167-.386-.247-.471-.289-.619-.904-.33-1.375.288-.471.903-.62 1.375-.33.154.094.305.19.452.289.459.307.583.928.276 1.387-.192.288-.509.444-.832.444zm-72.129-1.852c-.424 0-.816-.271-.952-.696-.169-.526.121-1.089.647-1.257.166-.053.332-.104.502-.153.53-.156 1.085.151 1.239.681s-.15 1.085-.681 1.239c-.152.044-.303.09-.451.138-.101.033-.203.048-.304.048zm68.083-.034c-.1 0-.201-.015-.301-.047-.147-.046-.298-.092-.45-.135-.53-.151-.839-.705-.688-1.236s.706-.836 1.236-.688c.17.049.338.099.503.151.527.166.819.728.653 1.254-.133.429-.528.701-.953.701zm-63.708-.893c-.498 0-.93-.372-.991-.878-.067-.548.322-1.047.87-1.115l.508-.058c.557-.058 1.043.337 1.103.886s-.337 1.043-.886 1.103l-.48.055c-.043.004-.084.007-.124.007zm59.329-.014c-.038 0-.077-.002-.116-.007l-.482-.053c-.549-.057-.949-.548-.893-1.097.058-.549.541-.951 1.098-.892l.508.056c.549.063.941.56.878 1.108-.059.51-.492.885-.993.885zm-4.472-.231c-.002 0-.004 0-.006 0l-.504-.004c-.553-.007-.995-.459-.988-1.012.007-.548.453-.988 1-.988h.012l.492.004c.553.003.997.454.994 1.006-.003.55-.45.994-1 .994zm-50.385 0c-.551 0-.998-.446-1-.997-.002-.552.444-1.001.997-1.003l.495-.002h.006c.55 0 .997.444 1 .994.003.552-.441 1.002-.994 1.006l-.501.002c-.001 0-.002 0-.003 0zm4.476-.155c-.521 0-.959-.403-.996-.93-.039-.551.376-1.029.927-1.068l.491-.036c.544-.045 1.031.37 1.073.921s-.37 1.031-.921 1.073l-.503.037c-.024.002-.048.003-.071.003zm41.432-.008c-.023 0-.048-.001-.071-.002l-.506-.038c-.55-.044-.961-.526-.917-1.077.044-.55.516-.967 1.077-.917l.486.037c.551.039.966.517.927 1.068-.037.526-.475.929-.996.929zm-36.979-.482c-.485 0-.911-.354-.987-.848-.084-.546.29-1.056.836-1.14l.478-.077c.541-.096 1.06.275 1.152.819.092.545-.275 1.061-.82 1.152l-.505.082c-.053.008-.105.012-.154.012zm32.528-.018c-.051 0-.103-.004-.154-.012l-.503-.082c-.545-.091-.912-.607-.821-1.152.091-.544.605-.912 1.151-.821l.479.078c.546.084.919.595.835 1.141-.076.495-.502.848-.987.848zm-28.145-.896c-.44 0-.844-.293-.965-.74-.144-.533.172-1.082.705-1.226l.467-.129c.533-.151 1.084.156 1.236.687.151.531-.156 1.084-.688 1.236l-.494.137c-.088.023-.175.035-.261.035zm23.762-.03c-.087 0-.175-.012-.263-.035l-.493-.138c-.53-.153-.837-.707-.685-1.237.152-.531.704-.837 1.237-.686l.464.13c.533.145.848.694.703 1.227-.119.445-.523.739-.963.739zm-19.528-1.424c-.387 0-.756-.227-.919-.605-.218-.507.017-1.096.524-1.313l.441-.195c.505-.226 1.096 0 1.321.503.227.504.001 1.096-.503 1.322l-.471.207c-.127.055-.261.081-.393.081zm15.3-.045c-.133 0-.269-.027-.398-.084l-.471-.21c-.502-.23-.723-.823-.493-1.325s.822-.725 1.325-.493l.438.195c.507.221.738.81.518 1.316-.165.377-.534.601-.919.601zm-11.364-2.082c-.32 0-.636-.154-.829-.439-.31-.457-.189-1.079.268-1.389.131-.089.262-.179.391-.271.451-.32 1.074-.213 1.395.236.319.45.214 1.075-.236 1.395-.141.1-.283.198-.428.296-.173.116-.367.172-.561.172zm7.439-.064c-.193 0-.39-.056-.562-.173-.145-.098-.286-.197-.427-.298-.449-.321-.554-.945-.232-1.395.319-.449.945-.553 1.395-.233.129.092.259.183.39.272.457.311.575.933.264 1.39-.194.284-.509.437-.828.437z" fill="#fff"/><path d="m102.729 69.636c.071-2.107-.203-6.049-2.838-8.775-2.424-2.508-6.617-3.779-12.465-3.779-12.942 0-20.736-3.238-25.426-7.236-4.69 3.998-12.484 7.236-25.426 7.236-5.847 0-10.041 1.271-12.465 3.779-2.635 2.726-2.91 6.667-2.839 8.775.044 1.294.044 2.607 0 3.901-.071 2.107.203 6.049 2.839 8.775 2.424 2.508 6.617 3.779 12.465 3.779 12.941 0 20.736 3.237 25.426 7.235 4.69-3.998 12.484-7.235 25.426-7.235 5.847 0 10.041-1.271 12.465-3.779 2.635-2.726 2.91-6.668 2.838-8.775-.044-1.294-.044-2.607 0-3.901z" fill="#d4fbff"/><g fill="#fa759e"><path d="m40.866 73.601c0 .379-.094.79-.281 1.231s-.48.875-.882 1.3c-.4.425-.913.771-1.536 1.036-.623.266-1.349.398-2.178.398-.629 0-1.201-.06-1.716-.179s-.981-.305-1.401-.557c-.421-.252-.807-.584-1.159-.996-.313-.374-.582-.792-.805-1.255-.222-.463-.389-.958-.499-1.483-.111-.526-.167-1.084-.167-1.675 0-.959.14-1.818.419-2.577.278-.758.679-1.407 1.198-1.946.521-.54 1.13-.95 1.829-1.231s1.444-.423 2.235-.423c.965 0 1.823.192 2.576.577.754.385 1.331.86 1.731 1.426.401.566.602 1.102.602 1.605 0 .276-.098.52-.292.731-.195.211-.432.317-.708.317-.309 0-.54-.073-.694-.219s-.327-.398-.517-.756c-.314-.591-.684-1.032-1.109-1.325-.426-.292-.949-.438-1.572-.438-.992 0-1.782.376-2.37 1.129s-.882 1.824-.882 3.211c0 .927.13 1.697.391 2.313.26.615.628 1.074 1.105 1.377.477.304 1.035.456 1.674.456.694 0 1.28-.172 1.76-.516.479-.344.842-.85 1.086-1.516.103-.314.229-.57.382-.768.151-.198.396-.297.731-.297.287 0 .533.101.739.301.207.202.31.451.31.749z"/><path d="m43.134 76.096v-9.388c0-.487.11-.854.333-1.097.222-.244.509-.366.861-.366.363 0 .657.121.882.362s.338.608.338 1.101v9.388c0 .493-.113.862-.338 1.105s-.519.366-.882.366c-.347 0-.633-.123-.857-.37s-.337-.613-.337-1.101z"/><path d="m51.489 72.268h-.846v3.828c0 .504-.111.875-.333 1.114-.223.238-.513.357-.87.357-.385 0-.683-.125-.894-.374-.212-.249-.317-.615-.317-1.097v-9.168c0-.521.116-.897.35-1.13.232-.233.609-.35 1.13-.35h3.926c.542 0 1.005.023 1.39.069s.731.139 1.041.28c.374.157.704.382.991.675.287.292.506.632.654 1.02.149.387.224.798.224 1.231 0 .889-.251 1.599-.752 2.129-.501.531-1.261.908-2.279 1.13.428.228.837.563 1.227 1.008.391.444.738.917 1.045 1.418.306.501.545.954.715 1.357.171.404.257.682.257.833 0 .157-.051.313-.15.467-.101.155-.237.276-.411.366-.173.09-.374.134-.602.134-.271 0-.498-.063-.683-.191s-.343-.289-.476-.484-.313-.482-.54-.861l-.968-1.609c-.347-.591-.657-1.041-.931-1.349-.273-.309-.551-.521-.833-.634s-.637-.169-1.065-.169zm1.382-5.007h-2.228v3.276h2.162c.58 0 1.067-.05 1.463-.15s.698-.271.906-.512c.209-.241.313-.573.313-.996 0-.331-.084-.622-.252-.874s-.401-.44-.699-.564c-.281-.12-.836-.18-1.665-.18z"/><path d="m70.152 73.601c0 .379-.094.79-.281 1.231s-.48.875-.882 1.3c-.4.425-.913.771-1.536 1.036-.623.266-1.349.398-2.178.398-.629 0-1.201-.06-1.716-.179s-.981-.305-1.401-.557c-.421-.252-.807-.584-1.159-.996-.313-.374-.582-.792-.805-1.255-.222-.463-.389-.958-.499-1.483-.111-.526-.167-1.084-.167-1.675 0-.959.14-1.818.419-2.577.278-.758.679-1.407 1.198-1.946.521-.54 1.13-.95 1.829-1.231s1.444-.423 2.235-.423c.965 0 1.823.192 2.576.577.754.385 1.331.86 1.731 1.426.401.566.602 1.102.602 1.605 0 .276-.098.52-.292.731-.195.211-.432.317-.708.317-.309 0-.54-.073-.694-.219s-.327-.398-.517-.756c-.314-.591-.684-1.032-1.109-1.325-.426-.292-.949-.438-1.572-.438-.992 0-1.782.376-2.37 1.129s-.882 1.824-.882 3.211c0 .927.13 1.697.391 2.313.26.615.628 1.074 1.105 1.377.477.304 1.035.456 1.674.456.694 0 1.28-.172 1.76-.516.479-.344.842-.85 1.086-1.516.103-.314.229-.57.382-.768.151-.198.396-.297.731-.297.287 0 .533.101.739.301.206.202.31.451.31.749z"/><path d="m72.337 72.439v-5.73c0-.487.11-.854.329-1.097.22-.244.509-.366.866-.366.374 0 .671.122.89.366.22.244.329.61.329 1.097v5.861c0 .667.075 1.223.224 1.67s.413.794.793 1.041c.379.247.91.37 1.593.37.943 0 1.609-.251 2-.752.39-.501.585-1.261.585-2.28v-5.909c0-.493.108-.86.325-1.101s.507-.362.87-.362c.362 0 .656.121.882.362.225.241.337.608.337 1.101v5.73c0 .932-.091 1.71-.272 2.333s-.524 1.17-1.028 1.642c-.434.401-.938.694-1.512.878s-1.246.276-2.016.276c-.916 0-1.704-.099-2.365-.296s-1.2-.504-1.617-.919c-.418-.414-.724-.945-.919-1.593s-.294-1.423-.294-2.322z"/><path d="m94.024 73.788c0 .721-.186 1.368-.557 1.942s-.915 1.024-1.63 1.349c-.716.325-1.563.488-2.544.488-1.176 0-2.146-.222-2.91-.667-.542-.32-.982-.746-1.321-1.28-.338-.534-.508-1.052-.508-1.557 0-.292.102-.543.305-.751s.461-.312.776-.312c.255 0 .471.081.646.244s.326.404.451.724c.151.379.315.696.491.951.177.255.425.465.744.63.319.166.739.248 1.26.248.716 0 1.297-.167 1.743-.5.447-.333.671-.749.671-1.248 0-.396-.12-.716-.361-.963s-.553-.435-.935-.565c-.383-.13-.894-.269-1.532-.415-.856-.201-1.573-.435-2.15-.703-.577-.269-1.035-.634-1.374-1.098-.338-.463-.508-1.039-.508-1.727 0-.656.179-1.238.537-1.748.357-.509.875-.901 1.552-1.174.678-.274 1.475-.411 2.39-.411.732 0 1.364.091 1.898.272.533.182.977.422 1.329.723s.609.617.771.947c.163.331.244.653.244.967 0 .288-.102.546-.305.776s-.456.346-.76.346c-.276 0-.486-.069-.63-.208s-.3-.364-.468-.679c-.217-.45-.477-.801-.78-1.053s-.791-.378-1.463-.378c-.623 0-1.126.137-1.508.411s-.573.603-.573.988c0 .238.065.444.195.618s.309.322.536.447c.228.125.458.222.691.293.232.07.617.173 1.154.309.672.157 1.28.331 1.824.521.545.189 1.008.42 1.391.69.382.271.68.614.894 1.028s.324.924.324 1.525z"/><path d="m43.239 49.649c-1.543 0-2.946-.792-3.753-2.119l-.803-1.32-1.505.356c-.34.081-.688.122-1.032.122-1.705 0-3.271-1.011-3.99-2.576-.726-1.58-.472-3.383.664-4.706l1.01-1.174-.804-1.32c-.839-1.379-.87-3.039-.083-4.44.784-1.396 2.254-2.263 3.837-2.263.585 0 1.161.117 1.711.346l1.427.597 1.007-1.172c.841-.978 2.054-1.538 3.328-1.538 1.238 0 2.43.522 3.269 1.432.836.908 1.24 2.093 1.139 3.339l-.127 1.541 1.427.596c1.767.739 2.849 2.517 2.692 4.426s-1.514 3.487-3.377 3.929l-1.505.355-.126 1.541c-.19 2.308-2.083 4.048-4.406 4.048z"/></g><path d="m42.05 45.972-1.137-1.868c-.477-.784-1.404-1.171-2.297-.96l-2.128.504c-1.326.314-2.279-1.253-1.391-2.286l1.426-1.658c.598-.696.68-1.697.203-2.481l-1.137-1.868c-.708-1.164.487-2.555 1.745-2.029l2.018.844c.846.354 1.824.122 2.422-.573l1.426-1.658c.889-1.034 2.581-.326 2.469 1.032l-.179 2.18c-.075.914.447 1.773 1.294 2.127l2.018.844c1.257.526 1.108 2.353-.219 2.667l-2.128.504c-.893.211-1.548.973-1.623 1.888l-.179 2.18c-.11 1.353-1.895 1.776-2.603.611z" fill="#ffd7e5"/><path d="m80.761 49.649c-2.322 0-4.216-1.741-4.405-4.048l-.126-1.541-1.504-.355c-1.864-.441-3.222-2.02-3.378-3.929s.926-3.687 2.692-4.426l1.427-.596-.127-1.541c-.102-1.246.303-2.431 1.139-3.339.839-.91 2.03-1.432 3.269-1.432 1.274 0 2.487.561 3.327 1.538l1.008 1.173 1.427-.597c.55-.229 1.126-.346 1.711-.346 1.583 0 3.053.867 3.837 2.263.787 1.401.756 3.061-.084 4.441l-.803 1.319 1.008 1.172c1.138 1.324 1.392 3.127.666 4.707-.719 1.565-2.285 2.577-3.989 2.577-.346 0-.692-.041-1.033-.122l-1.505-.356-.804 1.321c-.807 1.325-2.21 2.117-3.753 2.117z" fill="#fa759e"/><path d="m81.951 45.972 1.137-1.868c.477-.784 1.404-1.171 2.297-.96l2.128.504c1.326.314 2.279-1.253 1.391-2.286l-1.426-1.658c-.598-.696-.68-1.697-.203-2.481l1.137-1.868c.708-1.164-.487-2.555-1.745-2.029l-2.018.844c-.846.354-1.824.122-2.422-.573l-1.427-1.662c-.889-1.034-2.581-.326-2.469 1.032l.179 2.18c.075.914-.447 1.773-1.294 2.127l-2.018.844c-1.257.526-1.108 2.353.219 2.667l2.128.504c.893.211 1.548.973 1.623 1.888l.179 2.18c.111 1.357 1.895 1.78 2.604.615z" fill="#ffd7e5"/><path d="m67.54 42.246c-1.057 0-2.077-.335-2.951-.97l-2.556-1.857-2.624 1.857c-.873.635-1.894.97-2.95.97-1.608 0-3.139-.784-4.094-2.098-.948-1.306-1.203-2.946-.699-4.499l.978-3.004-2.577-1.922c-1.769-1.285-2.504-3.546-1.828-5.625s2.6-3.477 4.786-3.477h3.159l1.032-3.044c.675-2.079 2.599-3.476 4.785-3.476s4.11 1.397 4.786 3.477l.976 3.005 3.214.041c2.188 0 4.11 1.397 4.786 3.478.676 2.08-.06 4.341-1.829 5.625l-2.556 1.856.955 3.07c.504 1.552.249 3.192-.699 4.498-.956 1.311-2.486 2.095-4.094 2.095z" fill="#fa759e"/><path d="m95.169 97.381c-1.135.282-2.331.511-3.556.68-.547.076-.93.581-.854 1.128.069.5.497.863.989.863.045 0 .092-.003.138-.009 1.296-.179 2.563-.422 3.765-.721.536-.133.862-.676.729-1.211-.133-.538-.678-.865-1.211-.73z" fill="#3a2c60"/><path d="m115.315 70.286c.259-7.583-2.208-14.458-6.945-19.359-3.842-3.975-8.963-6.494-15.242-7.576.336-1.616-.073-3.296-1.191-4.598l-.534-.622.425-.698c1.03-1.693 1.068-3.73.102-5.451-.961-1.71-2.766-2.773-4.709-2.773-.718 0-1.423.143-2.097.424l-.756.316-.534-.622c-1.03-1.198-2.52-1.886-4.086-1.886-1.069 0-2.106.324-2.988.902.332-1.135.34-2.367-.046-3.554-.811-2.493-3.116-4.168-5.725-4.168l-2.497-.031-.754-2.323c-.811-2.493-3.116-4.167-5.737-4.167-2.622 0-4.928 1.675-5.732 4.155l-.802 2.366h-2.442c-2.621 0-4.927 1.675-5.737 4.168-.385 1.187-.377 2.421-.046 3.556-.881-.578-1.919-.902-2.988-.902-1.566 0-3.056.688-4.087 1.887l-.533.621-.757-.316c-.673-.281-1.378-.423-2.096-.423-1.943 0-3.748 1.063-4.709 2.773-.966 1.72-.929 3.757.101 5.45l.426.699-.536.624c-1.117 1.301-1.526 2.981-1.189 4.597-6.279 1.082-11.401 3.601-15.243 7.576-4.739 4.899-7.205 11.769-6.946 19.338.027.876.027 1.758 0 2.618-.259 7.582 2.207 14.457 6.944 19.358 5.26 5.442 12.881 8.202 22.651 8.202 6.358 0 11.509 1.153 13.775 3.085l5.564 4.744c1.269 1.083 2.824 1.624 4.38 1.624 1.557 0 3.112-.541 4.381-1.624l5.563-4.743c2.268-1.933 7.417-3.087 13.776-3.087.633 0 1.257-.012 1.87-.035.552-.021.982-.485.962-1.037s-.479-.988-1.036-.962c-.59.022-1.188.034-1.796.034-6.922 0-12.416 1.299-15.073 3.565l-5.563 4.743c-1.788 1.522-4.381 1.521-6.167 0l-5.564-4.745c-2.656-2.265-8.15-3.563-15.072-3.563-9.208 0-16.345-2.554-21.214-7.592-4.356-4.508-6.623-10.865-6.384-17.902.029-.904.029-1.829 0-2.75-.239-7.025 2.027-13.377 6.384-17.886 3.627-3.751 8.532-6.101 14.593-7.068 1.231 1.843 3.542 2.815 5.75 2.29l.798-.188.227.373c-.052 0-.101.002-.153.002-8.362 0-14.773 2.246-19.056 6.676-3.785 3.917-5.754 9.495-5.543 15.707.031.981.031 1.974 0 2.948-.211 6.216 1.758 11.797 5.543 15.713 4.281 4.43 10.693 6.677 19.056 6.677 7.848 0 13.733 1.48 17.02 4.281l6.052 5.16c.187.16.418.239.648.239s.462-.08.648-.239l6.052-5.159c3.286-2.801 9.172-4.281 17.02-4.281 8.362 0 14.774-2.247 19.056-6.677 3.786-3.917 5.755-9.496 5.544-15.707-.032-.981-.032-1.973 0-2.948.211-6.216-1.759-11.797-5.545-15.714-4.281-4.43-10.692-6.676-19.055-6.676-.052 0-.102-.002-.154-.002l.227-.373.798.189c2.213.525 4.52-.447 5.75-2.29 6.061.967 10.966 3.317 14.592 7.068 4.356 4.508 6.624 10.865 6.385 17.903-.029.904-.029 1.829 0 2.75.239 7.024-2.027 13.376-6.384 17.885-2.271 2.35-5.068 4.18-8.313 5.438-.516.199-.771.779-.571 1.293.2.515.78.771 1.294.571 3.518-1.364 6.555-3.353 9.028-5.913 4.737-4.902 7.203-11.771 6.944-19.34-.029-.876-.029-1.758-.002-2.618zm-40.972-36.991.067.816-.756.316c-.198.083-.381.187-.564.29l-.544-1.749 1.93-1.402c-.133.556-.181 1.136-.133 1.729zm-24.819-1.73 1.947 1.452-.554 1.704c-.185-.105-.37-.21-.571-.294l-.756-.316.067-.817c.048-.593 0-1.174-.133-1.729zm3.408 10.527c.792.57 1.709.947 2.679 1.086l-.311.266c-1.648 1.405-3.953 2.475-6.828 3.195.081-.309.143-.627.17-.956l.066-.816.798-.188c1.494-.355 2.704-1.316 3.426-2.587zm18.136 0c.722 1.271 1.932 2.231 3.427 2.585l.797.188.066.817c.027.33.088.647.17.956-2.875-.72-5.18-1.79-6.828-3.195l-.311-.265c.969-.139 1.887-.515 2.679-1.086zm-21.879-16.686c.541-1.667 2.083-2.786 3.835-2.786h3.159c.429 0 .81-.273.947-.679l1.036-3.057c.541-1.666 2.081-2.785 3.834-2.785s3.294 1.12 3.835 2.785l.976 3.005c.133.408.51.686.938.691l3.227.041c1.752 0 3.294 1.12 3.835 2.787.542 1.667-.047 3.478-1.466 4.507l-2.556 1.856c-.347.252-.494.697-.367 1.106l.959 3.082c.404 1.245.201 2.558-.557 3.602-.768 1.055-1.996 1.686-3.285 1.686-.844 0-1.661-.27-2.363-.779l-2.556-1.857c-.175-.127-.382-.191-.588-.191-.202 0-.404.061-.578.184l-2.634 1.865c-.701.509-1.518.778-2.362.778-1.289 0-2.518-.63-3.284-1.686-.759-1.044-.962-2.357-.558-3.602l.978-3.004c.133-.408-.01-.855-.354-1.111l-2.587-1.929c-1.417-1.031-2.005-2.843-1.464-4.509zm-12.241 20.188c-1.57.374-3.214-.443-3.883-1.899-.562-1.221-.364-2.615.513-3.636l1.01-1.174c.283-.329.321-.802.097-1.172l-.804-1.32c-.648-1.066-.674-2.349-.065-3.431.832-1.48 2.712-2.143 4.29-1.484l1.427.597c.4.168.862.059 1.145-.271l1.006-1.172c.651-.756 1.588-1.19 2.57-1.19.96 0 1.883.404 2.533 1.109.645.7.956 1.616.877 2.58l-.127 1.541c-.035.432.212.837.611 1.005l1.427.596c.317.133.602.312.856.522-.098 1.333.256 2.651 1.024 3.781-.384 1.061-1.27 1.885-2.409 2.155l-1.505.355c-.422.1-.731.459-.768.892l-.126 1.541c-.146 1.785-1.611 3.13-3.408 3.13-1.191 0-2.274-.612-2.898-1.638l-.803-1.32c-.185-.303-.511-.48-.854-.48-.076 0-.153.009-.23.027zm66.389 10.197c3.405 3.524 5.176 8.587 4.984 14.257-.034 1.019-.034 2.056 0 3.082.191 5.666-1.578 10.727-4.983 14.25-3.891 4.025-9.818 6.066-17.618 6.066-8.33 0-14.663 1.646-18.316 4.759l-5.404 4.608-5.403-4.606c-3.653-3.113-9.986-4.759-18.316-4.759-7.8 0-13.728-2.041-17.618-6.066-3.404-3.523-5.174-8.586-4.982-14.258.033-1.019.033-2.054 0-3.08-.191-5.667 1.578-10.728 4.982-14.251 3.892-4.025 9.819-6.066 17.618-6.066.649 0 1.28-.014 1.903-.035.883.612 1.937.958 3.056.958 1.558 0 2.943-.653 3.93-1.696 4.018-.769 7.219-2.106 9.428-3.988l3.319-2.829c.023-.016.049-.027.072-.044l2.038-1.443 1.976 1.436c.027.02.057.033.084.052l3.318 2.829c2.208 1.882 5.41 3.218 9.428 3.988.987 1.042 2.372 1.695 3.929 1.695 1.119 0 2.174-.346 3.057-.958.623.021 1.254.035 1.902.035 7.798-.001 13.725 2.039 17.616 6.064zm-16.285-10.197-1.505-.356c-.424-.098-.859.083-1.085.453l-.804 1.321c-.623 1.025-1.706 1.637-2.897 1.637-1.797 0-3.262-1.346-3.408-3.13l-.126-1.541c-.036-.432-.346-.792-.767-.892l-1.504-.355c-1.14-.27-2.027-1.094-2.41-2.155.769-1.131 1.122-2.451 1.024-3.782.254-.21.539-.389.856-.522l1.427-.596c.399-.167.646-.573.611-1.005l-.127-1.54c-.079-.964.232-1.88.877-2.58.65-.706 1.573-1.11 2.533-1.11.982 0 1.919.434 2.568 1.189l1.008 1.173c.283.329.745.438 1.145.271l1.426-.596c1.584-.661 3.459.003 4.291 1.483.608 1.082.583 2.364-.066 3.431l-.803 1.319c-.225.37-.187.843.096 1.172l1.008 1.172c.879 1.023 1.077 2.417.516 3.638-.669 1.459-2.308 2.275-3.884 1.901z" fill="#3a2c60"/><path d="m69.479 36.577-.976-3.004c-.409-1.26.039-2.641 1.111-3.419l2.556-1.856c1.593-1.157.774-3.676-1.194-3.676h-3.159c-1.325 0-2.499-.853-2.909-2.114l-.976-3.004c-.608-1.872-3.257-1.872-3.865 0l-.976 3.004c-.41 1.26-1.584 2.113-2.909 2.113h-3.159c-1.968 0-2.787 2.519-1.195 3.676l2.555 1.857c1.072.779 1.52 2.159 1.111 3.419l-.976 3.004c-.608 1.872 1.534 3.429 3.127 2.272l2.556-1.856c1.072-.779 2.523-.779 3.595 0l2.555 1.857c1.594 1.156 3.737-.401 3.128-2.273z" fill="#ffd7e5"/></svg>